# xmcd
#
# Track frame offsets:
#	150
#	19155
#	26135
#	57590
#	77345
#	94987
#	106612
#	132057
#	154285
#	175482
#	196967
#	221482
#	245787
#	256925
#	275175
#	301250
#	315997
#
# Disc length: 4515 seconds
#
# Revision: 1
# Processed by: cddbd v1.5.1PL0 Copyright (c) Steve Scherf et al.
# Submitted via: dBpowerAMP V4.0
#
DISCID=eb11a111
DTITLE=Robert B. Parker - Potshot [Read by Joe Mantegna] Disc 2
DYEAR=2001
DGENRE=Audio Book
TTITLE0=Potshot CD 2-Track 01
TTITLE1=Potshot CD 2-Track 02
TTITLE2=Potshot CD 2-Track 03
TTITLE3=Potshot CD 2-Track 04
TTITLE4=Potshot CD 2-Track 05
TTITLE5=Potshot CD 2-Track 06
TTITLE6=Potshot CD 2-Track 07
TTITLE7=Potshot CD 2-Track 08
TTITLE8=Potshot CD 2-Track 09
TTITLE9=Potshot CD 2-Track 10
TTITLE10=Potshot CD 2-Track 11
TTITLE11=Potshot CD 2-Track 12
TTITLE12=Potshot CD 2-Track 13
TTITLE13=Potshot CD 2-Track 14
TTITLE14=Potshot CD 2-Track 15
TTITLE15=Potshot CD 2-Track 16
TTITLE16=Potshot CD 2-Track 17
EXTD=
EXTT0=
EXTT1=
EXTT2=
EXTT3=
EXTT4=
EXTT5=
EXTT6=
EXTT7=
EXTT8=
EXTT9=
EXTT10=
EXTT11=
EXTT12=
EXTT13=
EXTT14=
EXTT15=
EXTT16=
PLAYORDER=
